<svg width="36" height="36" viewBox="0 0 36 36" fill="none" xmlns="http://www.w3.org/2000/svg">
<g clip-path="url(#clip0_192_856)">
<mask id="path-1-inside-1_192_856" fill="white">
<path fill-rule="evenodd" clip-rule="evenodd" d="M36 0V36H0V0H36ZM18.891 34.887L18.873 34.89L18.7665 34.9425L18.7365 34.9485L18.7155 34.9425L18.609 34.8885C18.594 34.884 18.5805 34.8885 18.573 34.8975L18.567 34.9125L18.5415 35.5545L18.549 35.5845L18.564 35.604L18.72 35.715L18.7425 35.721L18.7605 35.715L18.9165 35.604L18.9345 35.58L18.9405 35.5545L18.915 34.914C18.912 34.899 18.9015 34.8885 18.891 34.887ZM19.287 34.7175L19.266 34.7205L18.99 34.86L18.975 34.875L18.9705 34.8915L18.9975 35.5365L19.005 35.5545L19.017 35.5665L19.3185 35.7045C19.3365 35.7105 19.353 35.7045 19.362 35.6925L19.368 35.6715L19.317 34.7505C19.3125 34.7325 19.302 34.7205 19.287 34.7175ZM18.2145 34.7205C18.2077 34.7174 18.2001 34.7166 18.1927 34.7182C18.1854 34.7199 18.1789 34.7238 18.174 34.7295L18.165 34.7505L18.114 35.6715C18.114 35.6895 18.1245 35.7015 18.1395 35.7075L18.162 35.7045L18.4635 35.565L18.4785 35.553L18.483 35.5365L18.51 34.8915L18.5055 34.8735L18.4905 34.8585L18.2145 34.7205Z"/>
</mask>
<path d="M36 0H36.75V-0.75H36V0ZM36 36V36.75H36.75V36H36ZM0 36H-0.75V36.75H0V36ZM0 0V-0.75H-0.75V0H0ZM18.891 34.887L18.9971 34.1445L18.8822 34.1281L18.7677 34.1472L18.891 34.887ZM18.873 34.89L18.7497 34.1502L18.6406 34.1684L18.5414 34.2173L18.873 34.89ZM18.7665 34.9425L18.9136 35.6779L19.01 35.6587L19.0981 35.6152L18.7665 34.9425ZM18.7365 34.9485L18.5305 35.6696L18.7053 35.7196L18.8836 35.6839L18.7365 34.9485ZM18.7155 34.9425L18.3763 35.6114L18.4404 35.6439L18.5095 35.6636L18.7155 34.9425ZM18.609 34.8885L18.9482 34.2196L18.8885 34.1893L18.8245 34.1701L18.609 34.8885ZM18.573 34.8975L17.9968 34.4174L17.9208 34.5086L17.8766 34.619L18.573 34.8975ZM18.567 34.9125L17.8706 34.634L17.8227 34.7538L17.8176 34.8827L18.567 34.9125ZM18.5415 35.5545L17.7921 35.5247L17.7878 35.6321L17.8139 35.7364L18.5415 35.5545ZM18.549 35.5845L17.8214 35.7664L17.8593 35.918L17.9545 36.0418L18.549 35.5845ZM18.564 35.604L17.9695 36.0613L18.0379 36.1501L18.1292 36.2151L18.564 35.604ZM18.72 35.715L18.2852 36.3261L18.3957 36.4047L18.5268 36.4397L18.72 35.715ZM18.7425 35.721L18.5493 36.4457L18.7664 36.5036L18.9797 36.4325L18.7425 35.721ZM18.7605 35.715L18.9977 36.4265L19.104 36.3911L19.1953 36.3261L18.7605 35.715ZM18.9165 35.604L19.3513 36.2151L19.4465 36.1474L19.5165 36.054L18.9165 35.604ZM18.9345 35.58L19.5345 36.03L19.6286 35.9045L19.6646 35.7518L18.9345 35.58ZM18.9405 35.5545L19.6706 35.7263L19.694 35.6268L19.6899 35.5247L18.9405 35.5545ZM18.915 34.914L19.6644 34.8842L19.6621 34.825L19.6504 34.7669L18.915 34.914ZM19.287 34.7175L19.4341 33.9821L19.3081 33.9569L19.181 33.975L19.287 34.7175ZM19.266 34.7205L19.16 33.978L19.0378 33.9955L18.9277 34.0511L19.266 34.7205ZM18.99 34.86L18.6517 34.1906L18.5445 34.2448L18.4597 34.3297L18.99 34.86ZM18.975 34.875L18.4447 34.3447L18.3038 34.4855L18.2514 34.6777L18.975 34.875ZM18.9705 34.8915L18.2469 34.6942L18.2163 34.8065L18.2212 34.9229L18.9705 34.8915ZM18.9975 35.5365L18.2482 35.5679L18.2537 35.7015L18.3052 35.825L18.9975 35.5365ZM19.005 35.5545L18.3127 35.843L18.3698 35.9799L18.4746 36.0848L19.005 35.5545ZM19.017 35.5665L18.4866 36.0968L18.5821 36.1923L18.7049 36.2485L19.017 35.5665ZM19.3185 35.7045L19.0064 36.3865L19.043 36.4033L19.0813 36.416L19.3185 35.7045ZM19.362 35.6925L19.962 36.1425L20.0451 36.0317L20.0831 35.8985L19.362 35.6925ZM19.368 35.6715L20.0891 35.8775L20.1238 35.7561L20.1169 35.63L19.368 35.6715ZM19.317 34.7505L20.0659 34.709L20.0619 34.6378L20.0446 34.5686L19.317 34.7505ZM18.2145 34.7205L18.5499 34.0497L18.5374 34.0434L18.5247 34.0377L18.2145 34.7205ZM18.174 34.7295L17.6038 34.2423L17.5296 34.3291L17.4847 34.434L18.174 34.7295ZM18.165 34.7505L17.4757 34.455L17.4235 34.5768L17.4161 34.709L18.165 34.7505ZM18.114 35.6715L17.3651 35.63L17.364 35.6507V35.6715H18.114ZM18.1395 35.7075L17.861 36.4039L18.0436 36.4769L18.2387 36.4509L18.1395 35.7075ZM18.162 35.7045L18.2612 36.4479L18.3738 36.4329L18.4769 36.3852L18.162 35.7045ZM18.4635 35.565L18.7784 36.2457L18.861 36.2075L18.932 36.1507L18.4635 35.565ZM18.4785 35.553L18.947 36.1387L19.1378 35.986L19.2021 35.7503L18.4785 35.553ZM18.483 35.5365L19.2066 35.7338L19.2288 35.6523L19.2323 35.5679L18.483 35.5365ZM18.51 34.8915L19.2593 34.9229L19.2639 34.8146L19.2376 34.7096L18.51 34.8915ZM18.5055 34.8735L19.2331 34.6916L19.1827 34.4901L19.0358 34.3432L18.5055 34.8735ZM18.4905 34.8585L19.0208 34.3282L18.9348 34.2421L18.8259 34.1877L18.4905 34.8585ZM35.25 0V36H36.75V0H35.25ZM36 35.25H0V36.75H36V35.25ZM0.75 36V0H-0.75V36H0.75ZM0 0.75H36V-0.75H0V0.75ZM18.7677 34.1472L18.7497 34.1502L18.9963 35.6298L19.0143 35.6268L18.7677 34.1472ZM18.5414 34.2173L18.4349 34.2698L19.0981 35.6152L19.2046 35.5627L18.5414 34.2173ZM18.6194 34.2071L18.5894 34.2131L18.8836 35.6839L18.9136 35.6779L18.6194 34.2071ZM18.9425 34.2274L18.9215 34.2214L18.5095 35.6636L18.5305 35.6696L18.9425 34.2274ZM19.0547 34.2736L18.9482 34.2196L18.2698 35.5574L18.3763 35.6114L19.0547 34.2736ZM18.8245 34.1701C18.5523 34.0885 18.2163 34.154 17.9968 34.4174L19.1492 35.3776C18.9447 35.623 18.6357 35.6795 18.3935 35.6069L18.8245 34.1701ZM17.8766 34.619L17.8706 34.634L19.2634 35.191L19.2694 35.176L17.8766 34.619ZM17.8176 34.8827L17.7921 35.5247L19.2909 35.5843L19.3164 34.9423L17.8176 34.8827ZM17.8139 35.7364L17.8214 35.7664L19.2766 35.4026L19.2691 35.3726L17.8139 35.7364ZM17.9545 36.0418L17.9695 36.0613L19.1585 35.1467L19.1435 35.1272L17.9545 36.0418ZM18.1292 36.2151L18.2852 36.3261L19.1548 35.1039L18.9988 34.9929L18.1292 36.2151ZM18.5268 36.4397L18.5493 36.4457L18.9357 34.9963L18.9132 34.9903L18.5268 36.4397ZM18.9797 36.4325L18.9977 36.4265L18.5233 35.0035L18.5053 35.0095L18.9797 36.4325ZM19.1953 36.3261L19.3513 36.2151L18.4817 34.9929L18.3257 35.1039L19.1953 36.3261ZM19.5165 36.054L19.5345 36.03L18.3345 35.13L18.3165 35.154L19.5165 36.054ZM19.6646 35.7518L19.6706 35.7263L18.2104 35.3827L18.2044 35.4082L19.6646 35.7518ZM19.6899 35.5247L19.6644 34.8842L18.1656 34.9438L18.1911 35.5843L19.6899 35.5247ZM19.6504 34.7669C19.6025 34.5275 19.4023 34.2024 18.9971 34.1445L18.7849 35.6295C18.5852 35.6009 18.4413 35.4983 18.3539 35.4032C18.2624 35.3038 18.2042 35.1843 18.1796 35.0611L19.6504 34.7669ZM19.181 33.975L19.16 33.978L19.372 35.463L19.393 35.46L19.181 33.975ZM18.9277 34.0511L18.6517 34.1906L19.3283 35.5294L19.6043 35.3899L18.9277 34.0511ZM18.4597 34.3297L18.4447 34.3447L19.5053 35.4053L19.5203 35.3903L18.4597 34.3297ZM18.2514 34.6777L18.2469 34.6942L19.6941 35.0888L19.6986 35.0723L18.2514 34.6777ZM18.2212 34.9229L18.2482 35.5679L19.7468 35.5051L19.7198 34.8601L18.2212 34.9229ZM18.3052 35.825L18.3127 35.843L19.6973 35.266L19.6898 35.248L18.3052 35.825ZM18.4746 36.0848L18.4866 36.0968L19.5474 35.0362L19.5354 35.0242L18.4746 36.0848ZM18.7049 36.2485L19.0064 36.3865L19.6306 35.0225L19.3291 34.8845L18.7049 36.2485ZM19.0813 36.416C19.3922 36.5196 19.751 36.4239 19.962 36.1425L18.762 35.2425C18.955 34.9851 19.2808 34.9014 19.5557 34.993L19.0813 36.416ZM20.0831 35.8985L20.0891 35.8775L18.6469 35.4655L18.6409 35.4865L20.0831 35.8985ZM20.1169 35.63L20.0659 34.709L18.5681 34.792L18.6191 35.713L20.1169 35.63ZM20.0446 34.5686C19.993 34.3623 19.8165 34.0585 19.4341 33.9821L19.1399 35.4529C18.9827 35.4215 18.8471 35.3396 18.7485 35.2301C18.655 35.1263 18.6102 35.0158 18.5894 34.9324L20.0446 34.5686ZM18.5247 34.0377C18.3697 33.9672 18.196 33.9492 18.03 33.9861L18.3554 35.4504C18.2041 35.484 18.0457 35.4676 17.9043 35.4033L18.5247 34.0377ZM18.03 33.9861C17.864 34.023 17.7144 34.1129 17.6038 34.2423L18.7442 35.2167C18.6434 35.3347 18.5069 35.4167 18.3554 35.4504L18.03 33.9861ZM17.4847 34.434L17.4757 34.455L18.8543 35.046L18.8633 35.025L17.4847 34.434ZM17.4161 34.709L17.3651 35.63L18.8629 35.713L18.9139 34.792L17.4161 34.709ZM17.364 35.6715C17.364 36.0525 17.6174 36.3064 17.861 36.4039L18.418 35.0111C18.513 35.0491 18.6282 35.12 18.7211 35.244C18.8187 35.3741 18.864 35.5262 18.864 35.6715H17.364ZM18.2387 36.4509L18.2612 36.4479L18.0628 34.9611L18.0403 34.9641L18.2387 36.4509ZM18.4769 36.3852L18.7784 36.2457L18.1486 34.8843L17.8471 35.0238L18.4769 36.3852ZM18.932 36.1507L18.947 36.1387L18.01 34.9673L17.995 34.9793L18.932 36.1507ZM19.2021 35.7503L19.2066 35.7338L17.7594 35.3392L17.7549 35.3557L19.2021 35.7503ZM19.2323 35.5679L19.2593 34.9229L17.7607 34.8601L17.7337 35.5051L19.2323 35.5679ZM19.2376 34.7096L19.2331 34.6916L17.7779 35.0554L17.7824 35.0734L19.2376 34.7096ZM19.0358 34.3432L19.0208 34.3282L17.9602 35.3888L17.9752 35.4038L19.0358 34.3432ZM18.8259 34.1877L18.5499 34.0497L17.8791 35.3913L18.1551 35.5293L18.8259 34.1877Z" fill="#0E0E0E" mask="url(#path-1-inside-1_192_856)"/>
<path d="M25.125 7.5V7.875H25.5H28.5C29.1962 7.875 29.8639 8.15156 30.3562 8.64384C30.8484 9.13613 31.125 9.80381 31.125 10.5V28.5C31.125 29.1962 30.8484 29.8639 30.3562 30.3562C29.8639 30.8484 29.1962 31.125 28.5 31.125H7.5C6.80381 31.125 6.13613 30.8484 5.64384 30.3562C5.15156 29.8639 4.875 29.1962 4.875 28.5V10.5C4.875 9.80381 5.15156 9.13613 5.64384 8.64384C6.13613 8.15156 6.80381 7.875 7.5 7.875H10.5H10.875V7.5V6C10.875 5.70163 10.9935 5.41548 11.2045 5.2045C11.4155 4.99353 11.7016 4.875 12 4.875C12.2984 4.875 12.5845 4.99353 12.7955 5.2045L13.0564 4.94359L12.7955 5.20451C13.0065 5.41548 13.125 5.70163 13.125 6V7.5V7.875H13.5H22.5H22.875V7.5V6C22.875 5.70163 22.9935 5.41548 23.2045 5.20451C23.4155 4.99353 23.7016 4.875 24 4.875C24.2984 4.875 24.5845 4.99353 24.7955 5.20451C25.0065 5.41548 25.125 5.70163 25.125 6V7.5ZM7.5 10.125H7.125V10.5V13.5V13.875H7.5H28.5H28.875V13.5V10.5V10.125H28.5H24H12H7.5ZM7.5 16.125H7.125V16.5V28.5V28.875H7.5H28.5H28.875V28.5V16.5V16.125H28.5H7.5ZM10.875 19.5C10.875 19.2016 10.9935 18.9155 11.2045 18.7045C11.4155 18.4935 11.7016 18.375 12 18.375H12.015C12.3134 18.375 12.5995 18.4935 12.8105 18.7045C13.0215 18.9155 13.14 19.2016 13.14 19.5C13.14 19.7984 13.0215 20.0845 12.8105 20.2955C12.5995 20.5065 12.3134 20.625 12.015 20.625H12C11.7016 20.625 11.4155 20.5065 11.2045 20.2955C10.9935 20.0845 10.875 19.7984 10.875 19.5ZM11.2045 23.2045C11.4155 22.9935 11.7016 22.875 12 22.875H12.015C12.3134 22.875 12.5995 22.9935 12.8105 23.2045C13.0215 23.4155 13.14 23.7016 13.14 24C13.14 24.2984 13.0215 24.5845 12.8105 24.7955C12.5995 25.0065 12.3134 25.125 12.015 25.125H12C11.7016 25.125 11.4155 25.0065 11.2045 24.7955C10.9935 24.5845 10.875 24.2984 10.875 24C10.875 23.7016 10.9935 23.4155 11.2045 23.2045ZM16.875 19.5C16.875 19.2016 16.9935 18.9155 17.2045 18.7045C17.4155 18.4935 17.7016 18.375 18 18.375H18.015C18.3134 18.375 18.5995 18.4935 18.8105 18.7045C19.0215 18.9155 19.14 19.2016 19.14 19.5C19.14 19.7984 19.0215 20.0845 18.8105 20.2955C18.5995 20.5065 18.3134 20.625 18.015 20.625H18C17.7016 20.625 17.4155 20.5065 17.2045 20.2955C16.9935 20.0845 16.875 19.7984 16.875 19.5ZM17.2045 23.2045C17.4155 22.9935 17.7016 22.875 18 22.875H18.015C18.3134 22.875 18.5995 22.9935 18.8105 23.2045C19.0215 23.4155 19.14 23.7016 19.14 24C19.14 24.2984 19.0215 24.5845 18.8105 24.7955C18.5995 25.0065 18.3134 25.125 18.015 25.125H18C17.7016 25.125 17.4155 25.0065 17.2045 24.7955C16.9935 24.5845 16.875 24.2984 16.875 24C16.875 23.7016 16.9935 23.4155 17.2045 23.2045ZM22.875 19.5C22.875 19.2016 22.9935 18.9155 23.2045 18.7045C23.4155 18.4935 23.7016 18.375 24 18.375H24.015C24.3134 18.375 24.5995 18.4935 24.8105 18.7045C25.0215 18.9155 25.14 19.2016 25.14 19.5C25.14 19.7984 25.0215 20.0845 24.8105 20.2955C24.5995 20.5065 24.3134 20.625 24.015 20.625H24C23.7016 20.625 23.4155 20.5065 23.2045 20.2955C22.9935 20.0845 22.875 19.7984 22.875 19.5ZM23.2045 23.2045C23.4155 22.9935 23.7016 22.875 24 22.875H24.015C24.3134 22.875 24.5995 22.9935 24.8105 23.2045C25.0215 23.4155 25.14 23.7016 25.14 24C25.14 24.2984 25.0215 24.5845 24.8105 24.7955C24.5995 25.0065 24.3134 25.125 24.015 25.125H24C23.7016 25.125 23.4155 25.0065 23.2045 24.7955C22.9935 24.5845 22.875 24.2984 22.875 24C22.875 23.7016 22.9935 23.4155 23.2045 23.2045Z" fill="white" fill-opacity="0.9" stroke="#0E0E0E" stroke-width="0.75"/>
</g>
<defs>
<clipPath id="clip0_192_856">
<rect width="36" height="36" fill="white"/>
</clipPath>
</defs>
</svg>
