<svg width="89" height="70" viewBox="0 0 89 70" fill="none" xmlns="http://www.w3.org/2000/svg">
<g clip-path="url(#clip0_166_1648)">
<path fill-rule="evenodd" clip-rule="evenodd" d="M77.9119 65.9147L75.1773 53.5013C75.0183 52.8048 75.2375 52.1058 75.7451 51.538C80.2515 46.4855 82.3917 40.0184 80.9988 32.7888C79.1013 23.0027 70.1689 14.1584 57.807 9.98063C54.4304 8.855 51.0618 8.07468 47.7559 7.63373C24.0311 4.46926 3.3193 18.3762 7.28803 37.4552C9.13367 46.281 20.203 56.6417 31.4377 60.2322C34.4745 61.2066 37.4983 61.8747 40.4683 62.2709C46.8503 63.1221 52.987 62.7093 58.5152 61.3282C59.1299 61.1719 59.8013 61.129 60.4378 61.2139C60.756 61.2564 61.0707 61.3248 61.3803 61.4323L76.6323 66.6046C76.719 66.6294 76.8057 66.6542 76.8764 66.6637C77.4775 66.7438 78.0103 66.3912 77.9119 65.9147ZM70.0971 53.8167L71.6432 60.8417L63.1903 57.9797C62.4669 57.7376 61.7171 57.5581 60.9392 57.4544C59.4542 57.2563 57.9134 57.3421 56.4986 57.6962C51.5286 58.9399 46.3104 59.2104 40.9715 58.4983C38.3373 58.147 35.7008 57.5437 33.1292 56.7241C23.6207 53.6816 13.917 44.549 12.3824 37.1681C10.7834 29.4609 13.8246 22.1739 20.717 17.1748C27.6095 12.1757 37.2819 10.0764 47.2527 11.4063C50.1874 11.7977 53.1369 12.4824 56.0112 13.4616C66.6344 17.05 74.2522 24.5538 75.9097 33.0368C77.0732 39.0177 75.5159 44.6225 71.3901 49.2491C70.2058 50.5741 69.7379 52.1932 70.0971 53.8167Z" fill="#FF6A77" stroke="#171717" stroke-width="3.06207"/>
<path fill-rule="evenodd" clip-rule="evenodd" d="M40.6171 26.1985C39.5182 26.0519 38.3933 26.2172 37.355 26.6767C34.1413 28.1014 32.5536 32.0274 33.856 35.4303C34.0996 36.0675 34.5827 36.8582 35.222 37.7303C35.8578 38.5975 36.6335 39.5257 37.4457 40.4357C39.0699 42.2554 40.8256 43.986 41.8662 44.9842L41.8665 44.9845C42.1158 45.2241 42.4262 45.3735 42.7673 45.419C43.1077 45.4644 43.4471 45.4021 43.7567 45.2357C45.0227 44.545 47.17 43.3354 49.2138 42.0053C50.2361 41.3401 51.228 40.6476 52.0689 39.9773C52.9145 39.3033 53.5878 38.667 53.9899 38.1159C56.1341 35.1726 55.6306 30.9675 52.9026 28.7504C52.0211 28.0349 50.979 27.5806 49.8801 27.434C48.2337 27.2144 46.5954 27.6721 45.2716 28.7066L44.9645 28.9466L44.731 28.6345C43.7246 27.2892 42.2635 26.4181 40.6171 26.1985ZM37.0428 25.9938C38.2057 25.4791 39.4727 25.2911 40.716 25.457C42.4475 25.6879 43.9924 26.5584 45.1049 27.8934C46.5284 26.8967 48.2475 26.4616 49.979 26.6925C51.2223 26.8583 52.3957 27.3718 53.3831 28.1733C56.4372 30.6554 56.9701 35.3091 54.6058 38.5544C54.1441 39.1871 53.4081 39.8733 52.5464 40.5601C51.68 41.2507 50.6665 41.9577 49.6327 42.6305C47.5648 43.9762 45.3976 45.1968 44.1242 45.8914L44.1223 45.8924C43.6743 46.1336 43.1725 46.2278 42.6684 46.1606C42.1648 46.0934 41.7041 45.871 41.3386 45.5196C40.2917 44.5154 38.5204 42.7697 36.8777 40.9292C36.0563 40.009 35.2635 39.0611 34.6084 38.1675C33.9569 37.2789 33.4266 36.4241 33.1469 35.6926M37.0428 25.9938C33.4449 27.5886 31.7108 31.9401 33.1469 35.6926L37.0428 25.9938ZM37.6463 27.2939C38.5596 26.8902 39.5525 26.7424 40.5272 26.8724C42.2369 27.1005 43.7099 28.1275 44.5879 29.6681L44.5888 29.6697L44.8146 30.0704L45.1375 29.7429L45.1388 29.7416C46.39 28.4848 48.0855 27.8806 49.7903 28.1079C50.7646 28.2379 51.6843 28.6406 52.4557 29.2695C54.9344 31.2825 55.3496 35.0715 53.4182 37.7146C52.9854 38.3069 52.2522 38.9679 51.3943 39.6325C50.5298 40.3021 49.5135 40.9943 48.4927 41.6472C46.4506 42.9534 44.3717 44.1142 43.4123 44.6389L43.4102 44.6401C43.0651 44.8261 42.6306 44.7681 42.3463 44.4981L42.345 44.497C41.5561 43.7411 39.8538 42.0771 38.2254 40.2813C37.4114 39.3836 36.6121 38.4489 35.9534 37.5755C35.2998 36.7089 34.7656 35.878 34.5034 35.1917M37.9585 27.9768C35.4262 29.1023 34.1735 32.2175 35.2124 34.9292C35.4353 35.5129 35.9161 36.275 36.5609 37.1301C37.2008 37.9786 37.9837 38.8948 38.7895 39.7834C40.4002 41.5596 42.0875 43.2093 42.8712 43.9601C42.9161 44.0025 42.9895 44.0124 43.0442 43.9835C43.998 43.4618 46.0589 42.3108 48.0789 41.0188C49.0894 40.3725 50.0851 39.6937 50.9249 39.0432C51.7713 38.3876 52.4347 37.7793 52.8027 37.2755C54.5163 34.9305 54.1239 31.5913 51.975 29.8465L51.9744 29.846C51.3095 29.3038 50.5215 28.9602 49.6913 28.8495C48.2383 28.6557 46.7762 29.1666 45.681 30.2664C45.6808 30.2666 45.6806 30.2668 45.6804 30.267L44.6488 31.3133L43.9275 30.0332C43.9273 30.0329 43.9271 30.0326 43.927 30.0323C43.1582 28.6839 41.8859 27.8084 40.4283 27.6139C39.5985 27.5033 38.7477 27.6281 37.9585 27.9768ZM37.6463 27.2939L37.6456 27.2942L37.6463 27.2939ZM37.6456 27.2942C34.7258 28.5917 33.3322 32.1344 34.5034 35.1917L37.6456 27.2942Z" fill="#50B5CC"/>
<path d="M42.722 45.7588C42.3007 45.7026 41.916 45.5173 41.6093 45.2227C39.5265 43.2265 34.5705 38.2909 33.526 35.562C32.1595 31.9955 33.8161 27.8702 37.2138 26.3656C38.3117 25.8802 39.5049 25.7043 40.6732 25.8601C42.421 26.0932 43.9693 27.0178 45.0324 28.4376C46.4305 27.346 48.167 26.8597 49.9147 27.0928C51.0831 27.2486 52.1884 27.7311 53.1207 28.4873C56.0053 30.8298 56.5226 35.2451 54.2739 38.3294C52.5507 40.6892 46.4744 44.1532 43.9412 45.5337C43.5632 45.737 43.1434 45.815 42.722 45.7588ZM40.485 27.271C39.5848 27.151 38.6651 27.2868 37.8158 27.6617C35.0962 28.869 33.7764 32.1873 34.8792 35.0628C35.8476 37.5949 41.044 42.7013 42.6128 44.2029C42.7772 44.3589 43.0309 44.3927 43.2305 44.2853C45.1386 43.2427 51.4918 39.6767 53.0893 37.4917C54.9073 35.0058 54.504 31.4529 52.1952 29.5797C51.4787 28.9959 50.6267 28.6238 49.7265 28.5037C48.1512 28.2936 46.576 28.8493 45.4056 30.0239L44.7294 30.7092L44.2564 29.8706C43.4348 28.4304 42.0652 27.4818 40.485 27.271Z" fill="#50B5CC"/>
</g>
<defs>
<clipPath id="clip0_166_1648">
<rect width="81.1449" height="59.7104" fill="white" transform="translate(7.89441) rotate(7.59742)"/>
</clipPath>
</defs>
</svg>
