<svg width="189" height="57" viewBox="0 0 189 57" fill="none" xmlns="http://www.w3.org/2000/svg">
<path d="M64 12.1797H74.9922C81.5781 12.1797 85.8672 16.1641 85.8672 22.2812C85.8672 28.3984 81.5547 32.3594 74.9922 32.3594H65.8516V46H64V12.1797ZM65.8516 13.8672V30.6719H74.6875C80.3828 30.6719 83.9688 27.4844 83.9688 22.2812C83.9688 17.0547 80.4062 13.8672 74.6875 13.8672H65.8516ZM96.6981 46.3281C89.9716 46.3281 85.4716 41.3125 85.4716 33.3906C85.4716 25.4453 89.995 20.4297 96.6981 20.4297C103.425 20.4297 107.948 25.4453 107.948 33.3906C107.948 41.3125 103.425 46.3281 96.6981 46.3281ZM96.6981 44.6875C102.37 44.6875 106.097 40.3281 106.097 33.3906C106.097 26.4062 102.37 22.0938 96.6981 22.0938C91.0262 22.0938 87.2997 26.4062 87.2997 33.3906C87.2997 40.3516 91.0262 44.6875 96.6981 44.6875ZM108.818 27.2266C108.818 23.2188 112.638 20.4297 117.49 20.4297C122.576 20.4297 126.045 23.4297 126.443 28.0234H124.662C124.287 24.5078 121.662 22.0234 117.467 22.0234C113.717 22.0234 110.599 24.1094 110.599 27.1562C110.599 29.6406 112.31 30.9531 115.896 31.7969L119.81 32.7578C124.826 33.9766 126.842 35.8516 126.842 39.3203C126.842 43.4922 122.927 46.3281 117.513 46.3281C112.076 46.3281 108.279 43.0469 107.998 38.875H109.826C110.154 42.2031 113.248 44.7578 117.56 44.7578C121.756 44.7578 125.037 42.6484 125.037 39.4375C125.037 36.8125 123.396 35.3594 119.271 34.375L115.217 33.3906C110.951 32.3594 108.818 30.4844 108.818 27.2266ZM129.587 14.2656H131.391V20.7578H136.641V22.3516H131.391V40.2109C131.391 43.2344 132.516 44.4297 135.048 44.4297C135.188 44.4297 136.899 44.4062 136.969 44.3828V46C136.829 46.0234 135.094 46.0469 134.813 46.0469C131.157 46.0469 129.587 44.4297 129.587 40.2578V22.3516H125.883V20.7578H129.587V14.2656Z" fill="white" fill-opacity="0.9"/>
<path d="M158.16 44.2891V46H138.449V12.1797H158.16V13.8906H140.3V27.8125H157.316V29.5H140.3V44.2891H158.16Z" fill="#50B5CC" fill-opacity="0.9"/>
<path d="M159.147 46V44.4766L175.647 22.3984V22.3516H159.147V20.7578H177.78V22.3047L161.256 44.3594V44.4062H177.803V46H159.147ZM182.283 46.2344C181.368 46.2344 180.642 45.5078 180.642 44.5938C180.642 43.6797 181.368 42.9531 182.283 42.9531C183.197 42.9531 183.923 43.6797 183.923 44.5938C183.923 45.5078 183.197 46.2344 182.283 46.2344Z" fill="#CC505B" fill-opacity="0.9"/>
<g clip-path="url(#clip0_109_1005)">
<path d="M25.5188 50.9593L25.1606 51.1404L25.1263 51.1461L25.1023 51.1501L25.0478 51.1592L24.9982 51.1836L24.9899 51.1877L24.9816 51.1835L24.9518 51.1684L24.9198 51.1588C24.8874 51.1491 24.8537 51.1433 24.8194 51.1415L24.4537 50.9586L24.4538 50.9584L24.4411 50.9526C24.3579 50.9148 24.2647 50.9051 24.1757 50.9249C24.0865 50.9447 24.0062 50.993 23.9469 51.0624L23.9098 51.1058L23.8873 51.1583L23.8753 51.1863L23.8492 51.2471L23.8456 51.3133L23.7776 52.5413L23.777 52.5516V52.562C23.777 52.5838 23.7785 52.6048 23.7814 52.625H0.375V5.375H47.625V52.625H26.196L26.2019 52.6043L26.1984 52.5413L26.1304 51.3133L26.1285 51.2776L26.1198 51.243C26.0903 51.1249 25.9932 50.963 25.7896 50.9223L25.7266 50.9097L25.663 50.9188L25.635 50.9228L25.5739 50.9315L25.5188 50.9593Z" stroke="#171717" stroke-width="0.75"/>
<path d="M39.5371 8.4751L39.5371 8.475C39.4276 8.15398 39.2205 7.87525 38.9446 7.67788C38.6688 7.48051 38.3382 7.37439 37.999 7.37439C37.6598 7.37439 37.3292 7.48051 37.0534 7.67788C36.7775 7.87525 36.5704 8.15398 36.4609 8.475L36.4609 8.4751L36.2029 9.2311L36.2029 9.23113C35.8882 10.1531 35.3664 10.9906 34.6775 11.6795C33.9887 12.3683 33.1513 12.8901 32.2294 13.2048L39.5371 8.4751ZM39.5371 8.4751L39.7951 9.2311L39.7952 9.23127C40.1101 10.1528 40.6321 10.99 41.3209 11.6784C42.0096 12.3668 42.8469 12.8882 43.7684 13.2027C43.7686 13.2028 43.7687 13.2028 43.7689 13.2029L44.524 13.4626L44.5244 13.4627C44.8449 13.5725 45.123 13.7797 45.3199 14.0554C45.5168 14.331 45.6227 14.6612 45.6227 15C45.6227 15.3387 45.5168 15.669 45.3199 15.9446C45.123 16.2202 44.845 16.4273 44.5246 16.5372C44.5246 16.5372 44.5245 16.5372 44.5244 16.5372L43.7689 16.7951L43.7687 16.7951C42.8471 17.1101 42.01 17.6321 41.3215 18.3209C40.6332 19.0096 40.1117 19.8469 39.7972 20.7684C39.7972 20.7686 39.7971 20.7687 39.7971 20.7689L39.5374 21.524L39.5371 21.525C39.4276 21.846 39.2205 22.1247 38.9446 22.3221C38.6688 22.5195 38.3382 22.6256 37.999 22.6256C37.6598 22.6256 37.3292 22.5195 37.0534 22.3221C36.7777 22.1249 36.5707 21.8464 36.4612 21.5257C36.4612 21.5257 36.4612 21.5257 36.4612 21.5257C36.4611 21.5254 36.461 21.5252 36.4609 21.525L36.2052 20.7697L36.2048 20.7687C35.8899 19.8471 35.3679 19.01 34.6791 18.3215C33.9903 17.6331 33.153 17.1117 32.2314 16.7972C32.2313 16.7971 32.2312 16.7971 32.2311 16.7971L31.476 16.5374L31.4756 16.5372C31.1551 16.4274 30.877 16.2202 30.6801 15.9446C30.4832 15.669 30.3773 15.3387 30.3773 15C30.3773 14.6612 30.4832 14.331 30.6801 14.0554C30.877 13.7797 31.1551 13.5725 31.4756 13.4627L32.2291 13.2049L39.5371 8.4751ZM36.1592 14.706L35.7886 14.9995L36.1587 15.2936C36.7317 15.749 37.251 16.2682 37.7064 16.8413L38 17.2107L38.2936 16.8413C38.749 16.2683 39.2683 15.749 39.8413 15.2935L40.2113 14.9994L39.8408 14.706C39.2675 14.252 38.748 13.7325 38.294 13.1592L38.0006 12.7887L37.7065 13.1586C37.2499 13.7327 36.7321 14.2523 36.1592 14.706ZM25.6017 12.827L25.6017 12.8269L25.5937 12.8249C24.6515 12.5816 23.666 12.5573 22.7129 12.7537C21.7598 12.9502 20.8643 13.3623 20.0951 13.9584C19.3258 14.5545 18.7033 15.3188 18.2751 16.1927C17.847 17.0666 17.6246 18.0269 17.625 19C17.625 19 17.625 19.0001 17.625 19.0001V29C17.625 30.6907 18.2966 32.3122 19.4922 33.5078C20.6877 34.7033 22.3092 35.375 24 35.375C25.6908 35.375 27.3123 34.7033 28.5078 33.5078C29.7033 32.3122 30.375 30.6907 30.375 29V25C30.375 24.569 30.5462 24.1557 30.8509 23.8509C31.1557 23.5462 31.569 23.375 32 23.375C32.431 23.375 32.8443 23.5462 33.149 23.8509C33.4538 24.1557 33.625 24.569 33.625 25V29C33.625 31.5527 32.6109 34.0008 30.8059 35.8059C29.0009 37.6109 26.5527 38.625 24 38.625C21.4473 38.625 18.9991 37.6109 17.1941 35.8059C15.3891 34.0008 14.375 31.5527 14.375 29V19C14.375 16.4473 15.3891 13.9991 17.1941 12.1941C18.9991 10.389 21.4473 9.37498 24 9.37498C24.8278 9.37498 25.6325 9.48084 26.4069 9.67925L26.4069 9.67932L26.4142 9.68103C26.6248 9.73055 26.8234 9.82165 26.9984 9.94896C27.1734 10.0763 27.3211 10.2373 27.433 10.4225C27.5449 10.6077 27.6187 10.8133 27.6501 11.0274C27.6814 11.2415 27.6697 11.4597 27.6156 11.6692C27.5615 11.8787 27.4661 12.0753 27.335 12.2475C27.2039 12.4196 27.0397 12.5638 26.8521 12.6717C26.6645 12.7795 26.4573 12.8488 26.2426 12.8755C26.0278 12.9022 25.8099 12.8857 25.6017 12.827ZM25.953 44.5039L25.625 44.5453V44.876V47C25.625 47.431 25.4538 47.8443 25.149 48.149C24.8443 48.4538 24.431 48.625 24 48.625C23.569 48.625 23.1557 48.4538 22.8509 48.149C22.5462 47.8443 22.375 47.431 22.375 47V44.876V44.5453L22.047 44.5039C18.6522 44.0753 15.4919 42.5447 13.0507 40.147C10.6097 37.7493 9.0227 34.617 8.53318 31.2306C8.47201 30.804 8.58282 30.3705 8.84123 30.0256C9.09967 29.6806 9.48456 29.4524 9.91124 29.3912C10.3379 29.33 10.7714 29.4408 11.1164 29.6992C11.4614 29.9577 11.6896 30.3425 11.7508 30.7692L11.7509 30.7702C12.1806 33.7121 13.6547 36.4012 15.9039 38.3457C18.153 40.2902 21.0268 41.3603 24 41.3603C26.9732 41.3603 29.847 40.2902 32.0961 38.3457C34.3453 36.4012 35.8194 33.7121 36.2491 30.7702L36.2492 30.7692C36.3104 30.3425 36.5386 29.9577 36.8836 29.6992C37.2286 29.4408 37.6621 29.33 38.0888 29.3912C38.5154 29.4524 38.9003 29.6806 39.1588 30.0256C39.4171 30.3705 39.5279 30.8038 39.4668 31.2304C38.9774 34.6169 37.3903 37.7493 34.9492 40.147C32.5081 42.5447 29.3478 44.0753 25.953 44.5039Z" fill="white" fill-opacity="0.9" stroke="#171717" stroke-width="0.75"/>
</g>
<defs>
<clipPath id="clip0_109_1005">
<rect width="48" height="48" fill="white" transform="translate(0 5)"/>
</clipPath>
</defs>
</svg>
