<svg width="36" height="36" viewBox="0 0 36 36" fill="none" xmlns="http://www.w3.org/2000/svg">
<g clip-path="url(#clip0_192_852)">
<mask id="path-1-inside-1_192_852" fill="white">
<path fill-rule="evenodd" clip-rule="evenodd" d="M36 0V36H0V0H36ZM18.891 34.887L18.873 34.89L18.7665 34.9425L18.7365 34.9485L18.7155 34.9425L18.609 34.8885C18.594 34.884 18.5805 34.8885 18.573 34.8975L18.567 34.9125L18.5415 35.5545L18.549 35.5845L18.564 35.604L18.72 35.715L18.7425 35.721L18.7605 35.715L18.9165 35.604L18.9345 35.58L18.9405 35.5545L18.915 34.914C18.912 34.899 18.9015 34.8885 18.891 34.887ZM19.287 34.7175L19.266 34.7205L18.99 34.86L18.975 34.875L18.9705 34.8915L18.9975 35.5365L19.005 35.5545L19.017 35.5665L19.3185 35.7045C19.3365 35.7105 19.353 35.7045 19.362 35.6925L19.368 35.6715L19.317 34.7505C19.3125 34.7325 19.302 34.7205 19.287 34.7175ZM18.2145 34.7205C18.2077 34.7174 18.2001 34.7166 18.1927 34.7182C18.1854 34.7199 18.1789 34.7238 18.174 34.7295L18.165 34.7505L18.114 35.6715C18.114 35.6895 18.1245 35.7015 18.1395 35.7075L18.162 35.7045L18.4635 35.565L18.4785 35.553L18.483 35.5365L18.51 34.8915L18.5055 34.8735L18.4905 34.8585L18.2145 34.7205Z"/>
</mask>
<path d="M36 0H36.75V-0.75H36V0ZM36 36V36.75H36.75V36H36ZM0 36H-0.75V36.75H0V36ZM0 0V-0.75H-0.75V0H0ZM18.891 34.887L18.9971 34.1445L18.8822 34.1281L18.7677 34.1472L18.891 34.887ZM18.873 34.89L18.7497 34.1502L18.6406 34.1684L18.5414 34.2173L18.873 34.89ZM18.7665 34.9425L18.9136 35.6779L19.01 35.6587L19.0981 35.6152L18.7665 34.9425ZM18.7365 34.9485L18.5305 35.6696L18.7053 35.7196L18.8836 35.6839L18.7365 34.9485ZM18.7155 34.9425L18.3763 35.6114L18.4404 35.6439L18.5095 35.6636L18.7155 34.9425ZM18.609 34.8885L18.9482 34.2196L18.8885 34.1893L18.8245 34.1701L18.609 34.8885ZM18.573 34.8975L17.9968 34.4174L17.9208 34.5086L17.8766 34.619L18.573 34.8975ZM18.567 34.9125L17.8706 34.634L17.8227 34.7538L17.8176 34.8827L18.567 34.9125ZM18.5415 35.5545L17.7921 35.5247L17.7878 35.6321L17.8139 35.7364L18.5415 35.5545ZM18.549 35.5845L17.8214 35.7664L17.8593 35.918L17.9545 36.0418L18.549 35.5845ZM18.564 35.604L17.9695 36.0613L18.0379 36.1501L18.1292 36.2151L18.564 35.604ZM18.72 35.715L18.2852 36.3261L18.3957 36.4047L18.5268 36.4397L18.72 35.715ZM18.7425 35.721L18.5493 36.4457L18.7664 36.5036L18.9797 36.4325L18.7425 35.721ZM18.7605 35.715L18.9977 36.4265L19.104 36.3911L19.1953 36.3261L18.7605 35.715ZM18.9165 35.604L19.3513 36.2151L19.4465 36.1474L19.5165 36.054L18.9165 35.604ZM18.9345 35.58L19.5345 36.03L19.6286 35.9045L19.6646 35.7518L18.9345 35.58ZM18.9405 35.5545L19.6706 35.7263L19.694 35.6268L19.6899 35.5247L18.9405 35.5545ZM18.915 34.914L19.6644 34.8842L19.6621 34.825L19.6504 34.7669L18.915 34.914ZM19.287 34.7175L19.4341 33.9821L19.3081 33.9569L19.181 33.975L19.287 34.7175ZM19.266 34.7205L19.16 33.978L19.0378 33.9955L18.9277 34.0511L19.266 34.7205ZM18.99 34.86L18.6517 34.1906L18.5445 34.2448L18.4597 34.3297L18.99 34.86ZM18.975 34.875L18.4447 34.3447L18.3038 34.4855L18.2514 34.6777L18.975 34.875ZM18.9705 34.8915L18.2469 34.6942L18.2163 34.8065L18.2212 34.9229L18.9705 34.8915ZM18.9975 35.5365L18.2482 35.5679L18.2537 35.7015L18.3052 35.825L18.9975 35.5365ZM19.005 35.5545L18.3127 35.843L18.3698 35.9799L18.4746 36.0848L19.005 35.5545ZM19.017 35.5665L18.4866 36.0968L18.5821 36.1923L18.7049 36.2485L19.017 35.5665ZM19.3185 35.7045L19.0064 36.3865L19.043 36.4033L19.0813 36.416L19.3185 35.7045ZM19.362 35.6925L19.962 36.1425L20.0451 36.0317L20.0831 35.8985L19.362 35.6925ZM19.368 35.6715L20.0891 35.8775L20.1238 35.7561L20.1169 35.63L19.368 35.6715ZM19.317 34.7505L20.0659 34.709L20.0619 34.6378L20.0446 34.5686L19.317 34.7505ZM18.2145 34.7205L18.5499 34.0497L18.5374 34.0434L18.5247 34.0377L18.2145 34.7205ZM18.174 34.7295L17.6038 34.2423L17.5296 34.3291L17.4847 34.434L18.174 34.7295ZM18.165 34.7505L17.4757 34.455L17.4235 34.5768L17.4161 34.709L18.165 34.7505ZM18.114 35.6715L17.3651 35.63L17.364 35.6507V35.6715H18.114ZM18.1395 35.7075L17.861 36.4039L18.0436 36.4769L18.2387 36.4509L18.1395 35.7075ZM18.162 35.7045L18.2612 36.4479L18.3738 36.4329L18.4769 36.3852L18.162 35.7045ZM18.4635 35.565L18.7784 36.2457L18.861 36.2075L18.932 36.1507L18.4635 35.565ZM18.4785 35.553L18.947 36.1387L19.1378 35.986L19.2021 35.7503L18.4785 35.553ZM18.483 35.5365L19.2066 35.7338L19.2288 35.6523L19.2323 35.5679L18.483 35.5365ZM18.51 34.8915L19.2593 34.9229L19.2639 34.8146L19.2376 34.7096L18.51 34.8915ZM18.5055 34.8735L19.2331 34.6916L19.1827 34.4901L19.0358 34.3432L18.5055 34.8735ZM18.4905 34.8585L19.0208 34.3282L18.9348 34.2421L18.8259 34.1877L18.4905 34.8585ZM35.25 0V36H36.75V0H35.25ZM36 35.25H0V36.75H36V35.25ZM0.75 36V0H-0.75V36H0.75ZM0 0.75H36V-0.75H0V0.75ZM18.7677 34.1472L18.7497 34.1502L18.9963 35.6298L19.0143 35.6268L18.7677 34.1472ZM18.5414 34.2173L18.4349 34.2698L19.0981 35.6152L19.2046 35.5627L18.5414 34.2173ZM18.6194 34.2071L18.5894 34.2131L18.8836 35.6839L18.9136 35.6779L18.6194 34.2071ZM18.9425 34.2274L18.9215 34.2214L18.5095 35.6636L18.5305 35.6696L18.9425 34.2274ZM19.0547 34.2736L18.9482 34.2196L18.2698 35.5574L18.3763 35.6114L19.0547 34.2736ZM18.8245 34.1701C18.5523 34.0885 18.2163 34.154 17.9968 34.4174L19.1492 35.3776C18.9447 35.623 18.6357 35.6795 18.3935 35.6069L18.8245 34.1701ZM17.8766 34.619L17.8706 34.634L19.2634 35.191L19.2694 35.176L17.8766 34.619ZM17.8176 34.8827L17.7921 35.5247L19.2909 35.5843L19.3164 34.9423L17.8176 34.8827ZM17.8139 35.7364L17.8214 35.7664L19.2766 35.4026L19.2691 35.3726L17.8139 35.7364ZM17.9545 36.0418L17.9695 36.0613L19.1585 35.1467L19.1435 35.1272L17.9545 36.0418ZM18.1292 36.2151L18.2852 36.3261L19.1548 35.1039L18.9988 34.9929L18.1292 36.2151ZM18.5268 36.4397L18.5493 36.4457L18.9357 34.9963L18.9132 34.9903L18.5268 36.4397ZM18.9797 36.4325L18.9977 36.4265L18.5233 35.0035L18.5053 35.0095L18.9797 36.4325ZM19.1953 36.3261L19.3513 36.2151L18.4817 34.9929L18.3257 35.1039L19.1953 36.3261ZM19.5165 36.054L19.5345 36.03L18.3345 35.13L18.3165 35.154L19.5165 36.054ZM19.6646 35.7518L19.6706 35.7263L18.2104 35.3827L18.2044 35.4082L19.6646 35.7518ZM19.6899 35.5247L19.6644 34.8842L18.1656 34.9438L18.1911 35.5843L19.6899 35.5247ZM19.6504 34.7669C19.6025 34.5275 19.4023 34.2024 18.9971 34.1445L18.7849 35.6295C18.5852 35.6009 18.4413 35.4983 18.3539 35.4032C18.2624 35.3038 18.2042 35.1843 18.1796 35.0611L19.6504 34.7669ZM19.181 33.975L19.16 33.978L19.372 35.463L19.393 35.46L19.181 33.975ZM18.9277 34.0511L18.6517 34.1906L19.3283 35.5294L19.6043 35.3899L18.9277 34.0511ZM18.4597 34.3297L18.4447 34.3447L19.5053 35.4053L19.5203 35.3903L18.4597 34.3297ZM18.2514 34.6777L18.2469 34.6942L19.6941 35.0888L19.6986 35.0723L18.2514 34.6777ZM18.2212 34.9229L18.2482 35.5679L19.7468 35.5051L19.7198 34.8601L18.2212 34.9229ZM18.3052 35.825L18.3127 35.843L19.6973 35.266L19.6898 35.248L18.3052 35.825ZM18.4746 36.0848L18.4866 36.0968L19.5474 35.0362L19.5354 35.0242L18.4746 36.0848ZM18.7049 36.2485L19.0064 36.3865L19.6306 35.0225L19.3291 34.8845L18.7049 36.2485ZM19.0813 36.416C19.3922 36.5196 19.751 36.4239 19.962 36.1425L18.762 35.2425C18.955 34.9851 19.2808 34.9014 19.5557 34.993L19.0813 36.416ZM20.0831 35.8985L20.0891 35.8775L18.6469 35.4655L18.6409 35.4865L20.0831 35.8985ZM20.1169 35.63L20.0659 34.709L18.5681 34.792L18.6191 35.713L20.1169 35.63ZM20.0446 34.5686C19.993 34.3623 19.8165 34.0585 19.4341 33.9821L19.1399 35.4529C18.9827 35.4215 18.8471 35.3396 18.7485 35.2301C18.655 35.1263 18.6102 35.0158 18.5894 34.9324L20.0446 34.5686ZM18.5247 34.0377C18.3697 33.9672 18.196 33.9492 18.03 33.9861L18.3554 35.4504C18.2041 35.484 18.0457 35.4676 17.9043 35.4033L18.5247 34.0377ZM18.03 33.9861C17.864 34.023 17.7144 34.1129 17.6038 34.2423L18.7442 35.2167C18.6434 35.3347 18.5069 35.4167 18.3554 35.4504L18.03 33.9861ZM17.4847 34.434L17.4757 34.455L18.8543 35.046L18.8633 35.025L17.4847 34.434ZM17.4161 34.709L17.3651 35.63L18.8629 35.713L18.9139 34.792L17.4161 34.709ZM17.364 35.6715C17.364 36.0525 17.6174 36.3064 17.861 36.4039L18.418 35.0111C18.513 35.0491 18.6282 35.12 18.7211 35.244C18.8187 35.3741 18.864 35.5262 18.864 35.6715H17.364ZM18.2387 36.4509L18.2612 36.4479L18.0628 34.9611L18.0403 34.9641L18.2387 36.4509ZM18.4769 36.3852L18.7784 36.2457L18.1486 34.8843L17.8471 35.0238L18.4769 36.3852ZM18.932 36.1507L18.947 36.1387L18.01 34.9673L17.995 34.9793L18.932 36.1507ZM19.2021 35.7503L19.2066 35.7338L17.7594 35.3392L17.7549 35.3557L19.2021 35.7503ZM19.2323 35.5679L19.2593 34.9229L17.7607 34.8601L17.7337 35.5051L19.2323 35.5679ZM19.2376 34.7096L19.2331 34.6916L17.7779 35.0554L17.7824 35.0734L19.2376 34.7096ZM19.0358 34.3432L19.0208 34.3282L17.9602 35.3888L17.9752 35.4038L19.0358 34.3432ZM18.8259 34.1877L18.5499 34.0497L17.8791 35.3913L18.1551 35.5293L18.8259 34.1877Z" fill="#0E0E0E" mask="url(#path-1-inside-1_192_852)"/>
<path d="M29.5641 2.63664L29.5641 2.63653C29.4883 2.41429 29.3449 2.22132 29.154 2.08468C28.963 1.94804 28.7341 1.87457 28.4993 1.87457C28.2645 1.87457 28.0355 1.94804 27.8446 2.08468C27.6536 2.22132 27.5102 2.41429 27.4345 2.63653L27.4344 2.63663L27.2409 3.20363L27.2409 3.20366C27.0003 3.90868 26.6012 4.54917 26.0745 5.07594C25.5477 5.60265 24.9074 6.00165 24.2024 6.24232L29.5641 2.63664ZM29.5641 2.63664L29.7576 3.20364L29.7577 3.2038C29.9986 3.90852 30.3977 4.54869 30.9244 5.07517C31.4511 5.60152 32.0913 6.00024 32.7959 6.24076C32.7961 6.24081 32.7963 6.24087 32.7964 6.24093L33.3626 6.43563L33.363 6.43577C33.5848 6.51179 33.7774 6.65523 33.9137 6.84605C34.05 7.03686 34.1233 7.26551 34.1233 7.50002C34.1233 7.73453 34.05 7.96317 33.9137 8.15398C33.7774 8.34472 33.585 8.48812 33.3633 8.56417C33.3632 8.5642 33.3631 8.56423 33.363 8.56427L32.7964 8.75761L32.7962 8.75767C32.0915 8.99854 31.4514 9.39768 30.9249 9.92443C30.3986 10.451 29.9999 11.0911 29.7594 11.7957C29.7593 11.796 29.7592 11.7962 29.7591 11.7964L29.5644 12.3626L29.5641 12.3635C29.4883 12.5857 29.3449 12.7787 29.154 12.9154C28.963 13.052 28.7341 13.1255 28.4993 13.1255C28.2645 13.1255 28.0356 13.052 27.8446 12.9154C27.6538 12.7788 27.5105 12.5861 27.4347 12.3641C27.4346 12.3639 27.4345 12.3637 27.4345 12.3635L27.2427 11.7972L27.2424 11.7962C27.0015 11.0915 26.6024 10.4513 26.0756 9.92487C25.549 9.39853 24.9088 8.99982 24.2042 8.7593C24.204 8.75924 24.2038 8.75917 24.2036 8.75911L23.6375 8.5644L23.6371 8.56427C23.4152 8.48825 23.2227 8.3448 23.0864 8.15399C22.9501 7.96317 22.8768 7.73452 22.8768 7.50002C22.8768 7.26551 22.9501 7.03686 23.0864 6.84605C23.2227 6.65528 23.4152 6.51185 23.6369 6.43582C23.637 6.4358 23.637 6.43578 23.6371 6.43577L24.2022 6.24241L29.5641 2.63664ZM19.125 29.5764L19.4531 29.535C21.9788 29.2161 24.3301 28.0773 26.1463 26.2934C27.9624 24.5095 29.1432 22.179 29.5074 19.6595C29.5496 19.3642 29.4729 19.0642 29.2941 18.8254C29.1152 18.5866 28.8487 18.4286 28.5533 18.3862C28.2579 18.3438 27.9578 18.4206 27.7189 18.5995C27.4801 18.7784 27.3221 19.0449 27.2797 19.3403L27.2796 19.3412C26.9541 21.57 25.8373 23.6071 24.1335 25.0802C22.4296 26.5533 20.2524 27.364 18 27.364C15.7476 27.364 13.5705 26.5533 11.8666 25.0802C10.1627 23.6071 9.04595 21.57 8.72046 19.3412L8.72033 19.3403C8.67796 19.0449 8.51998 18.7784 8.28114 18.5995C8.0423 18.4206 7.74217 18.3438 7.44677 18.3862C7.15137 18.4286 6.8849 18.5866 6.70599 18.8254C6.52708 19.0642 6.45037 19.3643 6.49272 19.6597L19.125 29.5764ZM19.125 29.5764V29.907M19.125 29.5764V29.907M19.125 29.907V31.5C19.125 31.7984 19.0065 32.0845 18.7955 32.2955C18.5845 32.5065 18.2984 32.625 18 32.625C17.7017 32.625 17.4155 32.5065 17.2045 32.2955C16.9936 32.0845 16.875 31.7984 16.875 31.5V29.907V29.5764M19.125 29.907L16.875 29.5764M16.875 29.5764L16.547 29.535M16.875 29.5764L16.547 29.535M16.547 29.535C14.0213 29.2161 11.67 28.0773 9.85378 26.2934C8.03768 24.5096 6.85696 22.1792 6.49273 19.6598L16.547 29.535ZM27.0612 7.20604L26.6906 7.49951L27.0607 7.7936C27.4849 8.13072 27.8693 8.51511 28.2064 8.93932L28.5 9.30872L28.7936 8.93935C29.1308 8.51515 29.5152 8.13075 29.9394 7.79358L30.3094 7.49948L29.9388 7.20604C29.5145 6.87 29.13 6.48552 28.794 6.0612L28.5006 5.69078L28.2065 6.0606C27.8684 6.48575 27.4851 6.8703 27.0612 7.20604ZM19.2267 5.78006L19.2267 5.77998L19.2188 5.77792C18.4982 5.59188 17.7446 5.57327 17.0158 5.72351C16.2869 5.87376 15.6021 6.18888 15.0139 6.64472C14.4257 7.10057 13.9496 7.68503 13.6222 8.35332C13.2948 9.02156 13.1247 9.75589 13.125 10.5C13.125 10.5001 13.125 10.5001 13.125 10.5002V18C13.125 19.2929 13.6386 20.5329 14.5529 21.4472C15.4671 22.3614 16.7071 22.875 18 22.875C19.293 22.875 20.5329 22.3614 21.4472 21.4472C22.3614 20.5329 22.875 19.2929 22.875 18V15C22.875 14.7016 22.9936 14.4155 23.2045 14.2045C23.4155 13.9935 23.7017 13.875 24 13.875C24.2984 13.875 24.5845 13.9935 24.7955 14.2045C25.0065 14.4155 25.125 14.7016 25.125 15V18C25.125 19.8897 24.3744 21.702 23.0382 23.0382C21.702 24.3743 19.8897 25.125 18 25.125C16.1104 25.125 14.2981 24.3743 12.9619 23.0382C11.6257 21.702 10.875 19.8897 10.875 18V10.5C10.875 8.61035 11.6257 6.79808 12.9619 5.46188C14.2981 4.12568 16.1104 3.37502 18 3.37502C18.6128 3.37502 19.2086 3.45337 19.782 3.60028L19.7819 3.60035L19.7892 3.60206C19.935 3.63635 20.0725 3.69941 20.1937 3.78756C20.3148 3.8757 20.4171 3.98715 20.4946 4.11536C20.572 4.24357 20.6231 4.38596 20.6448 4.53419C20.6665 4.68241 20.6584 4.83347 20.621 4.97852C20.5835 5.12356 20.5175 5.25966 20.4267 5.37884C20.3359 5.49801 20.2223 5.59786 20.0924 5.67252C19.9625 5.74718 19.8191 5.79515 19.6704 5.81362C19.5217 5.83209 19.3709 5.82068 19.2267 5.78006Z" fill="white" fill-opacity="0.9" stroke="#0E0E0E" stroke-width="0.75"/>
</g>
<defs>
<clipPath id="clip0_192_852">
<rect width="36" height="36" fill="white"/>
</clipPath>
</defs>
</svg>
